<svg width="18" height="18" viewBox="0 0 18 18" fill="none" xmlns="http://www.w3.org/2000/svg">
<path fill-rule="evenodd" clip-rule="evenodd" d="M12.7822 4.53217C13.0751 4.23928 13.5499 4.23928 13.8428 4.53217L17.7803 8.46967C18.0732 8.76256 18.0732 9.23744 17.7803 9.53033L13.8428 13.4678C13.5499 13.7607 13.0751 13.7607 12.7822 13.4678C12.4893 13.1749 12.4893 12.7001 12.7822 12.4072L16.1893 9L12.7822 5.59283C12.4893 5.29994 12.4893 4.82506 12.7822 4.53217Z" fill="#37437D"/>
<path fill-rule="evenodd" clip-rule="evenodd" d="M6 9C6 8.58579 6.33579 8.25 6.75 8.25H17.25C17.6642 8.25 18 8.58579 18 9C18 9.41421 17.6642 9.75 17.25 9.75H6.75C6.33579 9.75 6 9.41421 6 9Z" fill="#37437D"/>
<path fill-rule="evenodd" clip-rule="evenodd" d="M0.43934 0.43934C0.720644 0.158036 1.10217 0 1.5 0H6.75C7.16421 0 7.5 0.335786 7.5 0.75C7.5 1.16421 7.16421 1.5 6.75 1.5L1.5 1.5L1.5 16.5H6.75C7.16421 16.5 7.5 16.8358 7.5 17.25C7.5 17.6642 7.16421 18 6.75 18H1.5C1.10218 18 0.720645 17.842 0.43934 17.5607C0.158035 17.2794 0 16.8978 0 16.5V1.5C0 1.10217 0.158036 0.720644 0.43934 0.43934Z" fill="#37437D"/>
</svg>
